<svg width="43" height="41" viewBox="0 0 43 41" fill="none" xmlns="http://www.w3.org/2000/svg">
<path fill-rule="evenodd" clip-rule="evenodd" d="M30.5194 38.4572C33.2441 41.1036 37.5982 41.0401 40.2445 38.3154C42.8909 35.5908 42.8274 31.2367 40.1028 28.5903L30.8865 19.6389L38.7839 11.7415C41.4697 9.05574 41.4697 4.7012 38.7839 2.0154C36.0981 -0.670401 31.7436 -0.670399 29.0578 2.0154L21.0186 10.0546L12.668 1.94399C9.94337 -0.70238 5.58929 -0.638907 2.94293 2.08576C0.296564 4.81042 0.36004 9.1645 3.0847 11.8109L11.2914 19.7817L2.01435 29.0588C-0.671449 31.7446 -0.671451 36.0992 2.01435 38.785C4.70015 41.4707 9.05469 41.4707 11.7405 38.785L21.1593 29.3661L30.5194 38.4572Z" fill="#D9D9D9"/>
</svg>
